<svg xmlns="http://www.w3.org/2000/svg" xmlns:xlink="http://www.w3.org/1999/xlink" width="500" zoomAndPan="magnify" viewBox="0 0 375 374.999991" height="500" preserveAspectRatio="xMidYMid meet" version="1.0"><defs><g/><clipPath id="ffd70ea1ad"><path d="M 65.792969 70.648438 L 296.042969 70.648438 L 296.042969 300.898438 L 65.792969 300.898438 Z M 65.792969 70.648438 " clip-rule="nonzero"/></clipPath><clipPath id="5fa9a6866f"><path d="M 181 70.648438 C 117.375 70.648438 65.792969 122.226562 65.792969 185.855469 C 65.792969 249.484375 117.375 301.0625 181 301.0625 C 244.628906 301.0625 296.207031 249.484375 296.207031 185.855469 C 296.207031 122.226562 244.628906 70.648438 181 70.648438 Z M 181 70.648438 " clip-rule="nonzero"/></clipPath></defs><g clip-path="url(#ffd70ea1ad)"><g clip-path="url(#5fa9a6866f)"><path stroke-linecap="butt" transform="matrix(0.75, 0, 0, 0.75, 65.793238, 70.648507)" fill="none" stroke-linejoin="miter" d="M 153.609026 -0.0000931477 C 68.775687 -0.0000931477 -0.000358706 68.770745 -0.000358706 153.609292 C -0.000358706 238.447839 68.775687 307.218677 153.609026 307.218677 C 238.447574 307.218677 307.218411 238.447839 307.218411 153.609292 C 307.218411 68.770745 238.447574 -0.0000931477 153.609026 -0.0000931477 Z M 153.609026 -0.0000931477 " stroke="#ffffff" stroke-width="20" stroke-opacity="1" stroke-miterlimit="4"/></g></g><path fill="#000000" d="M 101.355469 93.636719 C 100.953125 93.121094 100.605469 92.570312 100.308594 91.988281 C 100.015625 91.40625 99.777344 90.800781 99.597656 90.171875 C 99.417969 89.542969 99.296875 88.90625 99.242188 88.253906 C 99.183594 87.601562 99.191406 86.953125 99.257812 86.300781 C 99.328125 85.652344 99.457031 85.015625 99.648438 84.390625 C 99.835938 83.765625 100.085938 83.164062 100.390625 82.585938 C 100.699219 82.007812 101.058594 81.464844 101.46875 80.957031 C 101.878906 80.449219 102.332031 79.984375 102.832031 79.5625 C 105.667969 77.523438 108.582031 75.597656 111.566406 73.785156 C 114.554688 71.972656 117.609375 70.28125 120.726562 68.707031 C 123.847656 67.136719 127.023438 65.6875 130.257812 64.363281 C 133.488281 63.039062 136.769531 61.84375 140.09375 60.773438 C 143.421875 59.707031 146.785156 58.773438 150.183594 57.96875 C 153.585938 57.164062 157.011719 56.492188 160.460938 55.957031 C 163.914062 55.421875 167.382812 55.023438 170.867188 54.757812 C 174.351562 54.492188 177.839844 54.363281 181.332031 54.375 C 184.824219 54.382812 188.3125 54.527344 191.796875 54.808594 C 195.277344 55.089844 198.742188 55.507812 202.195312 56.0625 C 205.644531 56.617188 209.066406 57.300781 212.460938 58.125 C 215.855469 58.945312 219.214844 59.898438 222.535156 60.980469 C 225.859375 62.066406 229.132812 63.277344 232.359375 64.617188 C 235.582031 65.957031 238.753906 67.421875 241.863281 69.011719 C 244.976562 70.601562 248.019531 72.308594 251 74.132812 C 253.976562 75.960938 256.878906 77.902344 259.703125 79.957031 C 260.203125 80.378906 260.65625 80.847656 261.0625 81.355469 C 261.46875 81.867188 261.828125 82.410156 262.128906 82.992188 C 262.433594 83.570312 262.679688 84.171875 262.867188 84.796875 C 263.054688 85.425781 263.179688 86.0625 263.246094 86.710938 C 263.308594 87.363281 263.3125 88.011719 263.253906 88.664062 C 263.191406 89.316406 263.070312 89.953125 262.886719 90.582031 C 262.707031 91.207031 262.464844 91.8125 262.164062 92.394531 C 261.867188 92.976562 261.515625 93.523438 261.109375 94.035156 L 247.890625 109.582031 C 247.472656 110.132812 247 110.636719 246.476562 111.09375 C 245.957031 111.550781 245.394531 111.949219 244.789062 112.289062 C 244.1875 112.628906 243.554688 112.90625 242.894531 113.121094 C 242.234375 113.332031 241.558594 113.476562 240.871094 113.550781 C 240.179688 113.625 239.492188 113.628906 238.800781 113.5625 C 238.113281 113.5 237.433594 113.363281 236.773438 113.160156 C 236.109375 112.957031 235.472656 112.6875 234.867188 112.355469 C 234.257812 112.023438 233.691406 111.632812 233.160156 111.183594 C 231.257812 109.894531 229.308594 108.675781 227.316406 107.535156 C 225.320312 106.390625 223.289062 105.320312 221.214844 104.328125 C 219.144531 103.332031 217.035156 102.417969 214.894531 101.582031 C 212.753906 100.742188 210.585938 99.984375 208.390625 99.308594 C 206.191406 98.632812 203.972656 98.039062 201.734375 97.527344 C 199.492188 97.015625 197.234375 96.585938 194.960938 96.242188 C 192.691406 95.894531 190.40625 95.636719 188.117188 95.460938 C 185.824219 95.285156 183.527344 95.191406 181.230469 95.1875 C 178.929688 95.179688 176.636719 95.261719 174.34375 95.425781 C 172.050781 95.589844 169.765625 95.839844 167.492188 96.171875 C 165.21875 96.503906 162.960938 96.921875 160.714844 97.421875 C 158.472656 97.925781 156.25 98.507812 154.050781 99.171875 C 151.851562 99.839844 149.679688 100.585938 147.53125 101.414062 C 145.386719 102.238281 143.277344 103.144531 141.199219 104.125 C 139.121094 105.109375 137.082031 106.167969 135.082031 107.304688 C 133.082031 108.4375 131.128906 109.644531 129.21875 110.921875 C 128.6875 111.367188 128.117188 111.757812 127.507812 112.085938 C 126.898438 112.417969 126.261719 112.683594 125.597656 112.882812 C 124.933594 113.082031 124.257812 113.214844 123.566406 113.277344 C 122.878906 113.339844 122.1875 113.332031 121.5 113.25 C 120.808594 113.171875 120.136719 113.027344 119.476562 112.8125 C 118.816406 112.59375 118.1875 112.316406 117.585938 111.972656 C 116.984375 111.625 116.421875 111.226562 115.902344 110.765625 C 115.382812 110.308594 114.914062 109.800781 114.5 109.246094 Z M 101.355469 93.636719 " fill-opacity="1" fill-rule="nonzero"/><g fill="#ffffff" fill-opacity="1"><g transform="translate(119.36136, 101.414201)"><g><path d="M 6.109375 -11.046875 C 7.191406 -9.285156 7.65625 -7.695312 7.5 -6.28125 C 7.34375 -4.863281 6.5 -3.679688 4.96875 -2.734375 C 3.738281 -1.972656 2.507812 -1.660156 1.28125 -1.796875 C 0.0507812 -1.929688 -1.128906 -2.535156 -2.265625 -3.609375 L -1.296875 -4.859375 C -0.273438 -3.898438 0.675781 -3.375 1.5625 -3.28125 C 2.445312 -3.195312 3.332031 -3.425781 4.21875 -3.96875 C 4.863281 -4.375 5.3125 -4.832031 5.5625 -5.34375 C 5.8125 -5.851562 5.910156 -6.375 5.859375 -6.90625 C 5.816406 -7.445312 5.679688 -7.992188 5.453125 -8.546875 C 5.234375 -9.109375 4.96875 -9.644531 4.65625 -10.15625 L -0.609375 -18.703125 L 0.84375 -19.59375 Z M 6.109375 -11.046875 "/></g></g></g><g fill="#ffffff" fill-opacity="1"><g transform="translate(130.450691, 94.520635)"><g><path d="M 7.578125 -12.390625 C 8.035156 -11.390625 8.367188 -10.382812 8.578125 -9.375 C 8.796875 -8.363281 8.84375 -7.40625 8.71875 -6.5 C 8.59375 -5.59375 8.265625 -4.757812 7.734375 -4 C 7.203125 -3.25 6.421875 -2.640625 5.390625 -2.171875 C 4.359375 -1.691406 3.382812 -1.5 2.46875 -1.59375 C 1.5625 -1.6875 0.722656 -1.984375 -0.046875 -2.484375 C -0.816406 -2.984375 -1.507812 -3.644531 -2.125 -4.46875 C -2.75 -5.289062 -3.289062 -6.203125 -3.75 -7.203125 C -4.195312 -8.179688 -4.53125 -9.179688 -4.75 -10.203125 C -4.976562 -11.222656 -5.023438 -12.1875 -4.890625 -13.09375 C -4.765625 -14.007812 -4.4375 -14.84375 -3.90625 -15.59375 C -3.375 -16.351562 -2.601562 -16.96875 -1.59375 -17.4375 C -0.570312 -17.90625 0.394531 -18.085938 1.3125 -17.984375 C 2.226562 -17.890625 3.066406 -17.59375 3.828125 -17.09375 C 4.597656 -16.59375 5.300781 -15.925781 5.9375 -15.09375 C 6.582031 -14.269531 7.128906 -13.367188 7.578125 -12.390625 Z M 6.015625 -11.671875 C 5.566406 -12.648438 5.070312 -13.488281 4.53125 -14.1875 C 3.988281 -14.882812 3.414062 -15.425781 2.8125 -15.8125 C 2.207031 -16.195312 1.585938 -16.414062 0.953125 -16.46875 C 0.316406 -16.53125 -0.328125 -16.410156 -0.984375 -16.109375 C -1.785156 -15.734375 -2.363281 -15.238281 -2.71875 -14.625 C -3.070312 -14.019531 -3.265625 -13.332031 -3.296875 -12.5625 C -3.335938 -11.800781 -3.25 -11.023438 -3.03125 -10.234375 C -2.820312 -9.441406 -2.546875 -8.671875 -2.203125 -7.921875 C -1.867188 -7.179688 -1.460938 -6.457031 -0.984375 -5.75 C -0.515625 -5.050781 0.0078125 -4.472656 0.59375 -4.015625 C 1.1875 -3.566406 1.832031 -3.269531 2.53125 -3.125 C 3.238281 -2.988281 3.992188 -3.109375 4.796875 -3.484375 C 5.609375 -3.847656 6.1875 -4.335938 6.53125 -4.953125 C 6.875 -5.578125 7.066406 -6.257812 7.109375 -7 C 7.160156 -7.75 7.070312 -8.53125 6.84375 -9.34375 C 6.625 -10.15625 6.347656 -10.929688 6.015625 -11.671875 Z M 6.015625 -11.671875 "/></g></g></g><g fill="#ffffff" fill-opacity="1"><g transform="translate(142.30032, 89.036034)"><g><path d="M 9.390625 -7.40625 C 9.597656 -6.757812 9.648438 -6.128906 9.546875 -5.515625 C 9.441406 -4.910156 9.222656 -4.34375 8.890625 -3.8125 C 8.554688 -3.289062 8.128906 -2.835938 7.609375 -2.453125 C 7.085938 -2.066406 6.515625 -1.773438 5.890625 -1.578125 C 5.015625 -1.296875 4.160156 -1.203125 3.328125 -1.296875 C 2.503906 -1.390625 1.773438 -1.6875 1.140625 -2.1875 L 1.671875 -0.53125 L 0.296875 -0.09375 L -1.1875 -4.796875 L 0.1875 -5.234375 C 0.351562 -4.710938 0.625 -4.269531 1 -3.90625 C 1.382812 -3.550781 1.816406 -3.273438 2.296875 -3.078125 C 2.773438 -2.878906 3.289062 -2.765625 3.84375 -2.734375 C 4.394531 -2.710938 4.929688 -2.785156 5.453125 -2.953125 C 5.910156 -3.097656 6.3125 -3.296875 6.65625 -3.546875 C 7.007812 -3.796875 7.289062 -4.085938 7.5 -4.421875 C 7.71875 -4.765625 7.859375 -5.132812 7.921875 -5.53125 C 7.984375 -5.9375 7.941406 -6.363281 7.796875 -6.8125 C 7.640625 -7.300781 7.394531 -7.6875 7.0625 -7.96875 C 6.726562 -8.257812 6.335938 -8.472656 5.890625 -8.609375 C 5.441406 -8.753906 4.957031 -8.84375 4.4375 -8.875 C 3.925781 -8.90625 3.410156 -8.929688 2.890625 -8.953125 C 2.253906 -8.972656 1.617188 -9.003906 0.984375 -9.046875 C 0.359375 -9.085938 -0.222656 -9.203125 -0.765625 -9.390625 C -1.316406 -9.585938 -1.804688 -9.878906 -2.234375 -10.265625 C -2.671875 -10.648438 -3.003906 -11.203125 -3.234375 -11.921875 C -3.429688 -12.546875 -3.472656 -13.148438 -3.359375 -13.734375 C -3.242188 -14.328125 -3.019531 -14.859375 -2.6875 -15.328125 C -2.363281 -15.804688 -1.941406 -16.222656 -1.421875 -16.578125 C -0.898438 -16.941406 -0.332031 -17.222656 0.28125 -17.421875 C 1.039062 -17.660156 1.785156 -17.722656 2.515625 -17.609375 C 3.253906 -17.503906 3.898438 -17.191406 4.453125 -16.671875 L 3.9375 -18.28125 L 5.375 -18.734375 L 6.78125 -14.3125 L 5.34375 -13.859375 C 5.1875 -14.328125 4.945312 -14.734375 4.625 -15.078125 C 4.3125 -15.429688 3.941406 -15.695312 3.515625 -15.875 C 3.085938 -16.0625 2.632812 -16.171875 2.15625 -16.203125 C 1.675781 -16.234375 1.195312 -16.175781 0.71875 -16.03125 C 0.300781 -15.894531 -0.078125 -15.71875 -0.421875 -15.5 C -0.773438 -15.289062 -1.0625 -15.035156 -1.28125 -14.734375 C -1.5 -14.441406 -1.640625 -14.097656 -1.703125 -13.703125 C -1.773438 -13.316406 -1.742188 -12.894531 -1.609375 -12.4375 C -1.472656 -12.03125 -1.257812 -11.71875 -0.96875 -11.5 C -0.675781 -11.289062 -0.328125 -11.128906 0.078125 -11.015625 C 0.492188 -10.898438 0.953125 -10.820312 1.453125 -10.78125 C 1.960938 -10.75 2.484375 -10.71875 3.015625 -10.6875 C 3.660156 -10.664062 4.3125 -10.617188 4.96875 -10.546875 C 5.625 -10.484375 6.234375 -10.34375 6.796875 -10.125 C 7.367188 -9.90625 7.882812 -9.582031 8.34375 -9.15625 C 8.8125 -8.738281 9.160156 -8.15625 9.390625 -7.40625 Z M 9.390625 -7.40625 "/></g></g></g><g fill="#ffffff" fill-opacity="1"><g transform="translate(154.732105, 85.042881)"><g><path d="M 9.75 -7.71875 C 9.914062 -6.800781 9.96875 -5.957031 9.90625 -5.1875 C 9.851562 -4.425781 9.660156 -3.742188 9.328125 -3.140625 C 9.003906 -2.535156 8.546875 -2.03125 7.953125 -1.625 C 7.359375 -1.226562 6.625 -0.945312 5.75 -0.78125 C 4.851562 -0.613281 4.054688 -0.609375 3.359375 -0.765625 C 2.671875 -0.929688 2.070312 -1.238281 1.5625 -1.6875 C 1.0625 -2.132812 0.640625 -2.707031 0.296875 -3.40625 C -0.046875 -4.113281 -0.300781 -4.921875 -0.46875 -5.828125 L -2.375 -16.078125 L -0.6875 -16.390625 L 1.21875 -6.125 C 1.3125 -5.644531 1.445312 -5.140625 1.625 -4.609375 C 1.8125 -4.078125 2.070312 -3.613281 2.40625 -3.21875 C 2.738281 -2.832031 3.148438 -2.535156 3.640625 -2.328125 C 4.140625 -2.117188 4.753906 -2.082031 5.484375 -2.21875 C 6.203125 -2.351562 6.757812 -2.609375 7.15625 -2.984375 C 7.550781 -3.359375 7.832031 -3.785156 8 -4.265625 C 8.164062 -4.753906 8.238281 -5.28125 8.21875 -5.84375 C 8.207031 -6.40625 8.15625 -6.925781 8.0625 -7.40625 L 6.15625 -17.671875 L 7.84375 -17.984375 Z M 9.75 -7.71875 "/></g></g></g><g fill="#ffffff" fill-opacity="1"><g transform="translate(167.559136, 82.601187)"><g><path d="M 10.984375 -0.671875 L 0.609375 -0.03125 L -0.390625 -16.25 L 9.984375 -16.890625 L 10.078125 -15.4375 L 1.40625 -14.90625 L 1.765625 -9.109375 L 8.15625 -9.5 L 8.25 -8.03125 L 1.859375 -7.640625 L 2.21875 -1.59375 L 10.890625 -2.125 Z M 10.984375 -0.671875 "/></g></g></g><g fill="#ffffff" fill-opacity="1"><g transform="translate(180.588565, 81.74767)"><g/></g></g><g fill="#ffffff" fill-opacity="1"><g transform="translate(193.624497, 82.495166)"><g><path d="M 11.34375 2.109375 L 9.28125 1.734375 L 5.421875 -7.078125 L 3.390625 -5.5 L 2.28125 0.421875 L 0.59375 0.109375 L 3.5625 -15.859375 L 5.25 -15.546875 L 3.8125 -7.78125 L 12.09375 -14.265625 L 14.3125 -13.859375 L 6.734375 -8.0625 Z M 11.34375 2.109375 "/></g></g></g><g fill="#ffffff" fill-opacity="1"><g transform="translate(206.470978, 84.832439)"><g><path d="M 8.84375 2.796875 L 2.203125 0.703125 L 2.640625 -0.6875 L 5.140625 0.09375 L 9.171875 -12.625 L 6.671875 -13.40625 L 7.109375 -14.78125 L 13.75 -12.6875 L 13.3125 -11.3125 L 10.8125 -12.09375 L 6.78125 0.625 L 9.28125 1.40625 Z M 8.84375 2.796875 "/></g></g></g><g fill="#ffffff" fill-opacity="1"><g transform="translate(218.93481, 88.724335)"><g><path d="M 11.9375 0.8125 C 11.65625 1.425781 11.269531 1.925781 10.78125 2.3125 C 10.300781 2.695312 9.757812 2.972656 9.15625 3.140625 C 8.5625 3.304688 7.941406 3.359375 7.296875 3.296875 C 6.648438 3.234375 6.03125 3.0625 5.4375 2.78125 C 4.601562 2.40625 3.90625 1.90625 3.34375 1.28125 C 2.789062 0.65625 2.445312 -0.0507812 2.3125 -0.84375 L 1.59375 0.734375 L 0.28125 0.125 L 2.34375 -4.359375 L 3.65625 -3.75 C 3.414062 -3.25 3.316406 -2.738281 3.359375 -2.21875 C 3.410156 -1.695312 3.546875 -1.203125 3.765625 -0.734375 C 3.984375 -0.265625 4.289062 0.160156 4.6875 0.546875 C 5.082031 0.941406 5.53125 1.25 6.03125 1.46875 C 6.457031 1.675781 6.882812 1.800781 7.3125 1.84375 C 7.738281 1.882812 8.144531 1.851562 8.53125 1.75 C 8.914062 1.65625 9.265625 1.476562 9.578125 1.21875 C 9.898438 0.957031 10.15625 0.613281 10.34375 0.1875 C 10.5625 -0.28125 10.644531 -0.734375 10.59375 -1.171875 C 10.539062 -1.609375 10.394531 -2.023438 10.15625 -2.421875 C 9.914062 -2.816406 9.613281 -3.203125 9.25 -3.578125 C 8.894531 -3.953125 8.523438 -4.328125 8.140625 -4.703125 C 7.691406 -5.140625 7.25 -5.582031 6.8125 -6.03125 C 6.375 -6.488281 6.015625 -6.972656 5.734375 -7.484375 C 5.460938 -8.003906 5.296875 -8.550781 5.234375 -9.125 C 5.179688 -9.695312 5.3125 -10.320312 5.625 -11 C 5.894531 -11.601562 6.265625 -12.078125 6.734375 -12.421875 C 7.210938 -12.773438 7.734375 -13.019531 8.296875 -13.15625 C 8.859375 -13.300781 9.453125 -13.328125 10.078125 -13.234375 C 10.703125 -13.148438 11.3125 -12.976562 11.90625 -12.71875 C 12.625 -12.382812 13.21875 -11.929688 13.6875 -11.359375 C 14.15625 -10.796875 14.425781 -10.132812 14.5 -9.375 L 15.203125 -10.921875 L 16.5625 -10.296875 L 14.625 -6.078125 L 13.265625 -6.703125 C 13.472656 -7.140625 13.570312 -7.59375 13.5625 -8.0625 C 13.5625 -8.539062 13.460938 -8.988281 13.265625 -9.40625 C 13.078125 -9.832031 12.8125 -10.21875 12.46875 -10.5625 C 12.132812 -10.90625 11.742188 -11.179688 11.296875 -11.390625 C 10.898438 -11.566406 10.5 -11.691406 10.09375 -11.765625 C 9.6875 -11.847656 9.300781 -11.851562 8.9375 -11.78125 C 8.582031 -11.707031 8.25 -11.546875 7.9375 -11.296875 C 7.625 -11.054688 7.367188 -10.71875 7.171875 -10.28125 C 6.992188 -9.894531 6.9375 -9.519531 7 -9.15625 C 7.070312 -8.800781 7.222656 -8.445312 7.453125 -8.09375 C 7.691406 -7.738281 7.984375 -7.375 8.328125 -7 C 8.679688 -6.632812 9.039062 -6.269531 9.40625 -5.90625 C 9.875 -5.445312 10.328125 -4.972656 10.765625 -4.484375 C 11.203125 -3.992188 11.554688 -3.472656 11.828125 -2.921875 C 12.109375 -2.378906 12.273438 -1.800781 12.328125 -1.1875 C 12.390625 -0.570312 12.257812 0.09375 11.9375 0.8125 Z M 11.9375 0.8125 "/></g></g></g><g fill="#ffffff" fill-opacity="1"><g transform="translate(230.828665, 94.112357)"><g><path d="M 10.546875 6.5 L 9 5.546875 L 10.125 0.78125 L 4.65625 -2.578125 L 0.9375 0.578125 L -0.625 -0.390625 L 12.5 -11.375 L 14.46875 -10.171875 Z M 10.515625 -0.75 L 12.578125 -9.328125 L 5.875 -3.609375 Z M 10.515625 -0.75 "/></g></g></g><g fill="#ffffff" fill-opacity="1"><g transform="translate(114.967991, 249.465444)"><g><path d="M 9.125 -90.21875 C 8.125 -90.21875 7.625 -90.625 7.625 -91.4375 L 7.625 -107.640625 C 7.625 -108.453125 8.125 -108.859375 9.125 -108.859375 L 46.125 -108.859375 C 47.03125 -108.859375 47.484375 -108.453125 47.484375 -107.640625 L 47.484375 -90.21875 Z M 26.8125 -71.578125 L 47.484375 -71.578125 L 47.484375 -32.109375 C 47.484375 -26.753906 46.691406 -22.238281 45.109375 -18.5625 C 43.523438 -14.894531 41.503906 -11.878906 39.046875 -9.515625 C 36.597656 -7.160156 33.988281 -5.328125 31.21875 -4.015625 C 28.457031 -2.703125 25.851562 -1.769531 23.40625 -1.21875 C 20.957031 -0.675781 18.9375 -0.335938 17.34375 -0.203125 C 15.757812 -0.0664062 14.96875 0 14.96875 0 L 1.5 0 C 0.5 0 0 -0.40625 0 -1.21875 L 0 -18.921875 C 0 -19.734375 0.5 -20.140625 1.5 -20.140625 L 14.96875 -20.140625 C 17.957031 -20.140625 20.242188 -20.75 21.828125 -21.96875 C 23.421875 -23.195312 24.582031 -24.582031 25.3125 -26.125 C 26.039062 -27.664062 26.472656 -29.046875 26.609375 -30.265625 C 26.742188 -31.492188 26.8125 -32.109375 26.8125 -32.109375 Z M 26.8125 -71.578125 "/></g></g></g><g fill="#ffffff" fill-opacity="1"><g transform="translate(169.619467, 249.465444)"><g><path d="M 86.8125 -2.046875 C 87.269531 -1.492188 87.363281 -1.015625 87.09375 -0.609375 C 86.820312 -0.203125 86.320312 0 85.59375 0 L 62.1875 0 C 61.644531 0 61.238281 -0.132812 60.96875 -0.40625 L 29.25 -39.59375 C 28.800781 -39.144531 27.78125 -38.035156 26.1875 -36.265625 C 24.601562 -34.492188 22.695312 -32.359375 20.46875 -29.859375 C 18.25 -27.367188 15.957031 -24.785156 13.59375 -22.109375 C 11.238281 -19.429688 9.019531 -16.910156 6.9375 -14.546875 C 4.851562 -12.191406 3.175781 -10.289062 1.90625 -8.84375 C 0.632812 -7.394531 0 -6.671875 0 -6.671875 L 0 -107.640625 C 0 -108.453125 0.5 -108.859375 1.5 -108.859375 L 19.453125 -108.859375 C 20.359375 -108.859375 20.8125 -108.453125 20.8125 -107.640625 L 20.8125 -58.109375 L 61.78125 -108.453125 C 62.050781 -108.722656 62.457031 -108.859375 63 -108.859375 L 85.1875 -108.859375 C 85.914062 -108.859375 86.414062 -108.628906 86.6875 -108.171875 C 86.957031 -107.722656 86.863281 -107.273438 86.40625 -106.828125 L 43.140625 -53.484375 Z M 86.8125 -2.046875 "/></g></g></g></svg>